<?xml version="1.0" encoding="UTF-8" standalone="no"?>
<!DOCTYPE svg PUBLIC "-//W3C//DTD SVG 1.1//EN" "http://www.w3.org/Graphics/SVG/1.1/DTD/svg11.dtd">
<svg xmlns="http://www.w3.org/2000/svg" version="1.1" viewBox="0 0 390 256">
<g stroke-width="2.00" fill="none" stroke-linecap="butt">
<path stroke="#006cc4" vector-effect="non-scaling-stroke" d="
  M 209.96 39.50
  Q 207.91 40.35 206.00 38.75
  Q 194.99 29.49 181.00 34.50
  Q 179.03 35.20 177.43 38.00
  A 1.95 0.94 -16.3 0 1 176.73 38.63
  Q 176.20 38.94 176.20 39.46
  A 1.36 0.68 78.0 0 1 175.98 40.30
  C 174.04 42.56 173.79 45.18 171.04 47.25"
/>
<path stroke="#028d13" vector-effect="non-scaling-stroke" d="
  M 133.75 49.21
  Q 131.72 48.97 131.28 50.69
  A 1.79 1.79 -15.5 0 1 130.81 51.52
  Q 129.63 52.72 130.46 54.25"
/>
<path stroke="#23a704" vector-effect="non-scaling-stroke" d="
  M 153.04 61.50
  Q 152.18 63.81 152.43 66.24
  A 1.01 0.85 69.7 0 1 152.13 67.08
  L 151.46 67.64
  A 0.59 0.47 46.7 0 1 150.77 67.54
  Q 150.32 67.11 149.75 67.54"
/>
<path stroke="#38b002" vector-effect="non-scaling-stroke" d="
  M 190.25 95.21
  C 187.03 97.08 184.36 96.05 180.31 95.19
  Q 179.22 94.96 179.34 96.07
  Q 179.37 96.30 179.79 96.93
  Q 180.11 97.41 179.54 97.75"
/>
<path stroke="#16a603" vector-effect="non-scaling-stroke" d="
  M 206.06 97.91
  Q 201.72 97.39 199.00 98.75
  Q 196.80 99.85 195.00 99.79
  A 1.68 1.56 28.7 0 0 194.09 100.02
  C 191.07 101.89 185.84 100.31 181.94 100.99"
/>
<path stroke="#17a504" vector-effect="non-scaling-stroke" d="
  M 220.97 81.83
  Q 219.34 79.35 221.61 76.85
  Q 224.09 74.11 221.71 71.25"
/>
<path stroke="#028d13" vector-effect="non-scaling-stroke" d="
  M 247.29 61.75
  C 245.07 60.35 245.07 58.19 243.21 56.75"
/>
<path stroke="#00851b" vector-effect="non-scaling-stroke" d="
  M 115.54 66.50
  Q 114.06 67.09 114.94 68.31
  Q 119.72 74.92 124.50 81.54"
/>
<path stroke="#008c14" vector-effect="non-scaling-stroke" d="
  M 124.50 81.54
  L 131.46 92.00"
/>
<path stroke="#209513" vector-effect="non-scaling-stroke" d="
  M 131.46 92.00
  L 133.04 94.75"
/>
<path stroke="#00821e" vector-effect="non-scaling-stroke" d="
  M 133.04 94.75
  C 132.81 98.84 129.07 97.89 126.58 99.41
  Q 124.22 100.85 123.63 101.06
  C 120.79 102.08 115.95 103.48 114.68 106.45
  A 1.97 1.97 -74.0 0 1 112.56 107.63
  Q 109.36 107.12 109.41 110.31
  Q 109.41 110.53 109.71 111.23
  Q 109.92 111.75 109.29 112.00"
/>
<path stroke="#20a802" vector-effect="non-scaling-stroke" d="
  M 154.05 89.52
  Q 143.23 91.32 132.25 90.54
  A 0.63 0.51 5.7 0 0 131.59 90.98
  L 131.46 92.00"
/>
<path stroke="#00990a" vector-effect="non-scaling-stroke" d="
  M 142.25 79.71
  Q 140.52 80.30 139.87 79.03
  A 0.33 0.22 58.1 0 0 139.47 78.85
  L 139.21 79.06
  A 1.04 0.18 -42.8 0 1 138.50 79.52
  L 125.74 79.99
  A 1.29 0.82 10.8 0 0 124.88 80.33
  Q 124.47 80.82 124.50 81.54"
/>
<path stroke="#59b801" vector-effect="non-scaling-stroke" d="
  M 164.75 100.71
  C 162.55 98.58 161.15 99.77 159.05 99.72
  Q 149.06 99.52 139.06 99.65
  Q 138.03 99.66 137.96 100.75"
/>
<path stroke="#209701" vector-effect="non-scaling-stroke" d="
  M 137.96 100.75
  L 136.54 99.50"
/>
<path stroke="#209e0c" vector-effect="non-scaling-stroke" d="
  M 136.54 99.50
  L 133.04 94.75"
/>
<path stroke="#01840c" vector-effect="non-scaling-stroke" d="
  M 136.54 99.50
  C 138.72 105.83 144.77 114.17 148.11 118.61"
/>
<path stroke="#00950d" vector-effect="non-scaling-stroke" d="
  M 148.11 118.61
  Q 144.40 123.55 138.69 124.44
  C 134.81 125.03 134.30 128.01 130.56 128.07
  A 0.60 0.50 -84.3 0 0 130.06 128.56
  C 129.74 130.22 122.65 130.44 120.92 133.50
  A 1.20 1.04 4.1 0 1 120.21 134.03
  Q 118.37 134.53 118.46 136.75"
/>
<path stroke="#1c8c01" vector-effect="non-scaling-stroke" d="
  M 170.29 128.25
  Q 170.10 129.37 171.00 129.50
  A 1.59 0.51 0.8 0 1 171.89 129.80
  C 176.10 133.28 160.66 132.33 158.85 131.96"
/>
<path stroke="#018e02" vector-effect="non-scaling-stroke" d="
  M 158.85 131.96
  Q 152.85 125.76 148.11 118.61"
/>
<path stroke="#55ae01" vector-effect="non-scaling-stroke" d="
  M 193.65 138.37
  Q 181.27 135.09 170.29 128.25"
/>
<path stroke="#3a9e01" vector-effect="non-scaling-stroke" d="
  M 170.29 128.25
  Q 151.78 117.24 137.96 100.75"
/>
<path stroke="#1c9e02" vector-effect="non-scaling-stroke" d="
  M 158.85 131.96
  Q 160.76 132.86 161.38 135.20"
/>
<path stroke="#12a502" vector-effect="non-scaling-stroke" d="
  M 161.38 135.20
  Q 152.07 139.88 142.82 144.33
  Q 140.96 145.22 139.11 146.11
  C 136.07 147.56 132.74 148.37 129.96 151.25"
/>
<path stroke="#47aa00" vector-effect="non-scaling-stroke" d="
  M 202.50 147.21
  Q 200.98 147.74 199.45 147.32
  A 0.68 0.68 24.0 0 0 198.69 147.61
  C 196.83 150.54 190.38 152.76 187.30 153.99
  A 3.53 3.50 -45.2 0 1 184.74 154.01
  Q 179.99 152.17 176.25 148.96"
/>
<path stroke="#3ba701" vector-effect="non-scaling-stroke" d="
  M 176.25 148.96
  L 166.91 140.77"
/>
<path stroke="#2ea400" vector-effect="non-scaling-stroke" d="
  M 166.91 140.77
  L 161.38 135.20"
/>
<path stroke="#32ae01" vector-effect="non-scaling-stroke" d="
  M 166.91 140.77
  Q 157.20 145.11 147.64 149.82
  C 145.52 150.86 142.10 151.88 139.63 153.92
  Q 139.28 154.22 138.76 154.31
  Q 136.62 154.69 136.50 157.04"
/>
<path stroke="#4bb401" vector-effect="non-scaling-stroke" d="
  M 176.25 148.96
  Q 174.21 149.09 173.18 150.76
  A 0.91 0.89 -74.2 0 1 172.44 151.18
  Q 171.25 151.21 170.19 151.69
  Q 160.41 156.18 150.82 161.05
  C 149.24 161.85 147.14 161.54 146.96 164.25"
/>
<path stroke="#65bb01" vector-effect="non-scaling-stroke" d="
  M 211.25 153.71
  Q 210.46 154.20 210.03 153.68
  A 0.49 0.34 48.5 0 0 209.44 153.54
  Q 209.27 153.70 209.20 153.93
  A 1.11 0.61 -84.4 0 1 208.72 154.63
  Q 203.96 156.64 200.26 159.47
  Q 198.07 161.15 200.67 162.06
  C 210.38 165.45 225.72 167.45 235.55 163.69
  A 1.85 1.61 36.1 0 1 236.49 163.61
  Q 238.77 164.00 239.25 161.79"
/>
<path stroke="#794e28" vector-effect="non-scaling-stroke" d="
  M 272.79 69.25
  Q 271.13 69.78 270.91 71.28
  C 269.90 78.35 265.53 87.26 262.50 93.79"
/>
<path stroke="#7e5027" vector-effect="non-scaling-stroke" d="
  M 262.50 93.79
  Q 260.83 94.56 259.98 93.19
  A 0.76 0.68 68.2 0 0 259.25 92.83
  C 255.20 93.54 252.59 95.80 248.80 96.04
  C 244.19 96.34 236.01 96.55 231.75 99.25
  Q 230.79 99.86 229.07 99.83
  A 0.81 0.80 13.0 0 0 228.35 100.27
  Q 227.52 101.96 227.44 99.82
  A 0.68 0.51 8.8 0 0 226.93 99.30
  L 225.00 98.80
  Q 224.55 98.68 224.12 98.80
  Q 223.51 98.96 224.25 97.29"
/>
<path stroke="#794e28" vector-effect="non-scaling-stroke" d="
  M 271.96 115.00
  Q 270.96 113.70 269.81 114.44
  C 267.40 116.00 266.52 115.53 263.98 115.90
  Q 256.59 116.97 249.18 117.88
  A 1.18 1.17 15.2 0 0 248.39 118.33
  C 237.88 131.89 222.77 141.18 205.39 140.94
  Q 202.76 140.90 205.01 142.26
  Q 206.67 143.27 207.25 146.21"
/>
<path stroke="#754d29" vector-effect="non-scaling-stroke" d="
  M 212.25 109.21
  Q 210.73 112.57 213.30 111.85
  C 215.03 111.36 216.03 111.69 217.59 111.54
  Q 218.40 111.46 217.91 110.82
  Q 216.62 109.11 218.55 109.55
  C 222.28 110.40 224.50 108.54 227.35 108.18
  C 231.53 107.64 235.61 108.22 239.50 107.41
  C 243.69 106.53 249.90 104.00 253.95 104.16
  A 1.82 1.28 22.3 0 0 254.87 103.95
  Q 256.08 103.22 256.82 102.00
  A 0.74 0.65 19.0 0 1 257.54 101.71
  C 259.66 102.05 261.84 95.44 262.50 93.79"
/>
<path stroke="#137eca" vector-effect="non-scaling-stroke" d="
  M 202.04 47.52
  Q 198.16 41.69 190.94 41.67
  Q 187.54 41.65 183.06 44.06
  C 177.72 46.94 176.69 50.68 176.48 56.56
  Q 176.29 61.96 180.19 65.56
  Q 189.53 74.19 199.78 67.25
  Q 200.81 66.56 201.49 65.52
  Q 207.23 56.70 203.33 48.68
  Q 203.14 48.29 202.79 48.10
  Q 202.22 47.78 202.04 47.52"
/>
</g>
<path fill="#0062c1" d="
  M 209.96 39.50
  Q 207.91 40.35 206.00 38.75
  Q 194.99 29.49 181.00 34.50
  Q 179.03 35.20 177.43 38.00
  A 1.95 0.94 -16.3 0 1 176.73 38.63
  Q 176.20 38.94 176.20 39.46
  A 1.36 0.68 78.0 0 1 175.98 40.30
  C 174.04 42.56 173.79 45.18 171.04 47.25
  Q 178.91 25.19 192.21 5.92
  A 0.35 0.34 -44.7 0 1 192.78 5.92
  Q 203.22 21.76 209.96 39.50
  Z"
/>
<path fill="#0075c7" d="
  M 209.96 39.50
  C 214.95 51.89 217.06 66.02 206.31 75.81
  C 199.02 82.46 186.62 82.83 178.67 77.07
  C 169.29 70.27 166.87 58.00 171.04 47.25
  C 173.79 45.18 174.04 42.56 175.98 40.30
  A 1.36 0.68 78.0 0 0 176.20 39.46
  Q 176.20 38.94 176.73 38.63
  A 1.95 0.94 -16.3 0 0 177.43 38.00
  Q 179.03 35.20 181.00 34.50
  Q 194.99 29.49 206.00 38.75
  Q 207.91 40.35 209.96 39.50
  Z
  M 202.04 47.52
  Q 198.16 41.69 190.94 41.67
  Q 187.54 41.65 183.06 44.06
  C 177.72 46.94 176.69 50.68 176.48 56.56
  Q 176.29 61.96 180.19 65.56
  Q 189.53 74.19 199.78 67.25
  Q 200.81 66.56 201.49 65.52
  Q 207.23 56.70 203.33 48.68
  Q 203.14 48.29 202.79 48.10
  Q 202.22 47.78 202.04 47.52
  Z"
/>
<path fill="#017d1f" d="
  M 133.75 49.21
  Q 131.72 48.97 131.28 50.69
  A 1.79 1.79 -15.5 0 1 130.81 51.52
  Q 129.63 52.72 130.46 54.25
  Q 109.50 41.49 88.94 33.81
  Q 88.37 33.60 88.17 33.29
  Q 87.83 32.77 88.56 32.90
  Q 112.56 37.19 133.75 49.21
  Z"
/>
<path fill="#017d1f" d="
  M 247.29 61.75
  C 245.07 60.35 245.07 58.19 243.21 56.75
  Q 268.64 41.03 298.28 36.73
  Q 300.42 36.42 298.79 37.00
  Q 271.70 46.58 247.29 61.75
  Z"
/>
<path fill="#2586cc" d="
  M 202.79 48.10
  Q 203.14 48.29 203.33 48.68
  Q 207.23 56.70 201.49 65.52
  Q 200.81 66.56 199.78 67.25
  Q 189.53 74.19 180.19 65.56
  Q 176.29 61.96 176.48 56.56
  C 176.69 50.68 177.72 46.94 183.06 44.06
  Q 187.54 41.65 190.94 41.67
  Q 198.16 41.69 202.04 47.52
  Q 202.22 47.78 202.79 48.10
  Z"
/>
<path fill="#029c06" d="
  M 133.75 49.21
  Q 143.83 54.67 153.04 61.50
  Q 152.18 63.81 152.43 66.24
  A 1.01 0.85 69.7 0 1 152.13 67.08
  L 151.46 67.64
  A 0.59 0.47 46.7 0 1 150.77 67.54
  Q 150.32 67.11 149.75 67.54
  L 130.46 54.25
  Q 129.63 52.72 130.81 51.52
  A 1.79 1.79 -15.5 0 0 131.28 50.69
  Q 131.72 48.97 133.75 49.21
  Z"
/>
<path fill="#029c06" d="
  M 243.21 56.75
  C 245.07 58.19 245.07 60.35 247.29 61.75
  Q 233.40 70.74 220.97 81.83
  Q 219.34 79.35 221.61 76.85
  Q 224.09 74.11 221.71 71.25
  Q 231.95 63.24 243.21 56.75
  Z"
/>
<path fill="#43b202" d="
  M 153.04 61.50
  Q 173.71 76.08 190.25 95.21
  C 187.03 97.08 184.36 96.05 180.31 95.19
  Q 179.22 94.96 179.34 96.07
  Q 179.37 96.30 179.79 96.93
  Q 180.11 97.41 179.54 97.75
  Q 166.60 80.73 149.75 67.54
  Q 150.32 67.11 150.77 67.54
  A 0.59 0.47 46.7 0 0 151.46 67.64
  L 152.13 67.08
  A 1.01 0.85 69.7 0 0 152.43 66.24
  Q 152.18 63.81 153.04 61.50
  Z"
/>
<path fill="#007824" d="
  M 115.54 66.50
  Q 114.06 67.09 114.94 68.31
  Q 119.72 74.92 124.50 81.54
  L 131.46 92.00
  L 133.04 94.75
  C 132.81 98.84 129.07 97.89 126.58 99.41
  Q 124.22 100.85 123.63 101.06
  C 120.79 102.08 115.95 103.48 114.68 106.45
  A 1.97 1.97 -74.0 0 1 112.56 107.63
  Q 109.36 107.12 109.41 110.31
  Q 109.41 110.53 109.71 111.23
  Q 109.92 111.75 109.29 112.00
  Q 105.56 88.76 112.78 66.41
  A 0.78 0.71 -81.0 0 1 113.44 65.88
  Q 114.56 65.84 115.54 66.50
  Z"
/>
<path fill="#009211" d="
  M 115.54 66.50
  Q 130.04 70.80 142.25 79.71
  Q 140.52 80.30 139.87 79.03
  A 0.33 0.22 58.1 0 0 139.47 78.85
  L 139.21 79.06
  A 1.04 0.18 -42.8 0 1 138.50 79.52
  L 125.74 79.99
  A 1.29 0.82 10.8 0 0 124.88 80.33
  Q 124.47 80.82 124.50 81.54
  Q 119.72 74.92 114.94 68.31
  Q 114.06 67.09 115.54 66.50
  Z"
/>
<path fill="#825126" d="
  M 272.79 69.25
  Q 271.13 69.78 270.91 71.28
  C 269.90 78.35 265.53 87.26 262.50 93.79
  Q 260.83 94.56 259.98 93.19
  A 0.76 0.68 68.2 0 0 259.25 92.83
  C 255.20 93.54 252.59 95.80 248.80 96.04
  C 244.19 96.34 236.01 96.55 231.75 99.25
  Q 230.79 99.86 229.07 99.83
  A 0.81 0.80 13.0 0 0 228.35 100.27
  Q 227.52 101.96 227.44 99.82
  A 0.68 0.51 8.8 0 0 226.93 99.30
  L 225.00 98.80
  Q 224.55 98.68 224.12 98.80
  Q 223.51 98.96 224.25 97.29
  C 237.21 84.87 253.80 71.37 271.25 67.00
  Q 273.47 66.44 272.79 69.25
  Z"
/>
<path fill="#6f4b2a" d="
  M 272.79 69.25
  Q 277.70 92.23 271.96 115.00
  Q 270.96 113.70 269.81 114.44
  C 267.40 116.00 266.52 115.53 263.98 115.90
  Q 256.59 116.97 249.18 117.88
  A 1.18 1.17 15.2 0 0 248.39 118.33
  C 237.88 131.89 222.77 141.18 205.39 140.94
  Q 202.76 140.90 205.01 142.26
  Q 206.67 143.27 207.25 146.21
  Q 198.95 139.75 193.57 130.75
  A 0.72 0.70 50.0 0 1 193.63 129.93
  Q 202.43 119.12 212.25 109.21
  Q 210.73 112.57 213.30 111.85
  C 215.03 111.36 216.03 111.69 217.59 111.54
  Q 218.40 111.46 217.91 110.82
  Q 216.62 109.11 218.55 109.55
  C 222.28 110.40 224.50 108.54 227.35 108.18
  C 231.53 107.64 235.61 108.22 239.50 107.41
  C 243.69 106.53 249.90 104.00 253.95 104.16
  A 1.82 1.28 22.3 0 0 254.87 103.95
  Q 256.08 103.22 256.82 102.00
  A 0.74 0.65 19.0 0 1 257.54 101.71
  C 259.66 102.05 261.84 95.44 262.50 93.79
  C 265.53 87.26 269.90 78.35 270.91 71.28
  Q 271.13 69.78 272.79 69.25
  Z"
/>
<path fill="#2cad02" d="
  M 221.71 71.25
  Q 224.09 74.11 221.61 76.85
  Q 219.34 79.35 220.97 81.83
  Q 213.04 89.49 206.06 97.91
  Q 201.72 97.39 199.00 98.75
  Q 196.80 99.85 195.00 99.79
  A 1.68 1.56 28.7 0 0 194.09 100.02
  C 191.07 101.89 185.84 100.31 181.94 100.99
  L 179.54 97.75
  Q 180.11 97.41 179.79 96.93
  Q 179.37 96.30 179.34 96.07
  Q 179.22 94.96 180.31 95.19
  C 184.36 96.05 187.03 97.08 190.25 95.21
  L 191.66 96.55
  A 1.59 1.35 43.4 0 0 193.75 96.66
  Q 207.00 82.55 221.71 71.25
  Z"
/>
<path fill="#009f03" d="
  M 142.25 79.71
  Q 148.49 83.73 154.05 89.52
  Q 143.23 91.32 132.25 90.54
  A 0.63 0.51 5.7 0 0 131.59 90.98
  L 131.46 92.00
  L 124.50 81.54
  Q 124.47 80.82 124.88 80.33
  A 1.29 0.82 10.8 0 1 125.74 79.99
  L 138.50 79.52
  A 1.04 0.18 -42.8 0 0 139.21 79.06
  L 139.47 78.85
  A 0.33 0.22 58.1 0 1 139.87 79.03
  Q 140.52 80.30 142.25 79.71
  Z"
/>
<path fill="#3fb101" d="
  M 154.05 89.52
  Q 159.81 94.30 164.75 100.71
  C 162.55 98.58 161.15 99.77 159.05 99.72
  Q 149.06 99.52 139.06 99.65
  Q 138.03 99.66 137.96 100.75
  L 136.54 99.50
  L 133.04 94.75
  L 131.46 92.00
  L 131.59 90.98
  A 0.63 0.51 5.7 0 1 132.25 90.54
  Q 143.23 91.32 154.05 89.52
  Z"
/>
<path fill="#7a4e27" d="
  M 262.50 93.79
  C 261.84 95.44 259.66 102.05 257.54 101.71
  A 0.74 0.65 19.0 0 0 256.82 102.00
  Q 256.08 103.22 254.87 103.95
  A 1.82 1.28 22.3 0 1 253.95 104.16
  C 249.90 104.00 243.69 106.53 239.50 107.41
  C 235.61 108.22 231.53 107.64 227.35 108.18
  C 224.50 108.54 222.28 110.40 218.55 109.55
  Q 216.62 109.11 217.91 110.82
  Q 218.40 111.46 217.59 111.54
  C 216.03 111.69 215.03 111.36 213.30 111.85
  Q 210.73 112.57 212.25 109.21
  L 224.25 97.29
  Q 223.51 98.96 224.12 98.80
  Q 224.55 98.68 225.00 98.80
  L 226.93 99.30
  A 0.68 0.51 8.8 0 1 227.44 99.82
  Q 227.52 101.96 228.35 100.27
  A 0.81 0.80 13.0 0 1 229.07 99.83
  Q 230.79 99.86 231.75 99.25
  C 236.01 96.55 244.19 96.34 248.80 96.04
  C 252.59 95.80 255.20 93.54 259.25 92.83
  A 0.76 0.68 68.2 0 1 259.98 93.19
  Q 260.83 94.56 262.50 93.79
  Z"
/>
<path fill="#008b17" d="
  M 133.04 94.75
  L 136.54 99.50
  C 138.72 105.83 144.77 114.17 148.11 118.61
  Q 144.40 123.55 138.69 124.44
  C 134.81 125.03 134.30 128.01 130.56 128.07
  A 0.60 0.50 -84.3 0 0 130.06 128.56
  C 129.74 130.22 122.65 130.44 120.92 133.50
  A 1.20 1.04 4.1 0 1 120.21 134.03
  Q 118.37 134.53 118.46 136.75
  Q 111.48 125.27 109.29 112.00
  Q 109.92 111.75 109.71 111.23
  Q 109.41 110.53 109.41 110.31
  Q 109.36 107.12 112.56 107.63
  A 1.97 1.97 -74.0 0 0 114.68 106.45
  C 115.95 103.48 120.79 102.08 123.63 101.06
  Q 124.22 100.85 126.58 99.41
  C 129.07 97.89 132.81 98.84 133.04 94.75
  Z"
/>
<path fill="#009f03" d="
  M 206.06 97.91
  Q 198.24 107.92 192.79 119.70
  Q 192.44 120.47 192.09 119.69
  Q 187.52 109.62 181.94 100.99
  C 185.84 100.31 191.07 101.89 194.09 100.02
  A 1.68 1.56 28.7 0 1 195.00 99.79
  Q 196.80 99.85 199.00 98.75
  Q 201.72 97.39 206.06 97.91
  Z"
/>
<path fill="#73bf01" d="
  M 164.75 100.71
  C 175.06 112.52 184.15 125.69 193.65 138.37
  Q 181.27 135.09 170.29 128.25
  Q 151.78 117.24 137.96 100.75
  Q 138.03 99.66 139.06 99.65
  Q 149.06 99.52 159.05 99.72
  C 161.15 99.77 162.55 98.58 164.75 100.71
  Z"
/>
<path fill="#017c01" d="
  M 136.54 99.50
  L 137.96 100.75
  Q 151.78 117.24 170.29 128.25
  Q 170.10 129.37 171.00 129.50
  A 1.59 0.51 0.8 0 1 171.89 129.80
  C 176.10 133.28 160.66 132.33 158.85 131.96
  Q 152.85 125.76 148.11 118.61
  C 144.77 114.17 138.72 105.83 136.54 99.50
  Z"
/>
<path fill="#825126" d="
  M 271.96 115.00
  Q 266.54 137.55 250.81 155.56
  Q 248.49 158.22 245.48 158.54
  Q 223.47 160.88 207.25 146.21
  Q 206.67 143.27 205.01 142.26
  Q 202.76 140.90 205.39 140.94
  C 222.77 141.18 237.88 131.89 248.39 118.33
  A 1.18 1.17 15.2 0 1 249.18 117.88
  Q 256.59 116.97 263.98 115.90
  C 266.52 115.53 267.40 116.00 269.81 114.44
  Q 270.96 113.70 271.96 115.00
  Z"
/>
<path fill="#009f03" d="
  M 148.11 118.61
  Q 152.85 125.76 158.85 131.96
  Q 160.76 132.86 161.38 135.20
  Q 152.07 139.88 142.82 144.33
  Q 140.96 145.22 139.11 146.11
  C 136.07 147.56 132.74 148.37 129.96 151.25
  Q 123.28 144.74 118.46 136.75
  Q 118.37 134.53 120.21 134.03
  A 1.20 1.04 4.1 0 0 120.92 133.50
  C 122.65 130.44 129.74 130.22 130.06 128.56
  A 0.60 0.50 -84.3 0 1 130.56 128.07
  C 134.30 128.01 134.81 125.03 138.69 124.44
  Q 144.40 123.55 148.11 118.61
  Z"
/>
<path fill="#379c00" d="
  M 170.29 128.25
  Q 181.27 135.09 193.65 138.37
  L 202.50 147.21
  Q 200.98 147.74 199.45 147.32
  A 0.68 0.68 24.0 0 0 198.69 147.61
  C 196.83 150.54 190.38 152.76 187.30 153.99
  A 3.53 3.50 -45.2 0 1 184.74 154.01
  Q 179.99 152.17 176.25 148.96
  L 166.91 140.77
  L 161.38 135.20
  Q 160.76 132.86 158.85 131.96
  C 160.66 132.33 176.10 133.28 171.89 129.80
  A 1.59 0.51 0.8 0 0 171.00 129.50
  Q 170.10 129.37 170.29 128.25
  Z"
/>
<path fill="#24ab00" d="
  M 161.38 135.20
  L 166.91 140.77
  Q 157.20 145.11 147.64 149.82
  C 145.52 150.86 142.10 151.88 139.63 153.92
  Q 139.28 154.22 138.76 154.31
  Q 136.62 154.69 136.50 157.04
  L 129.96 151.25
  C 132.74 148.37 136.07 147.56 139.11 146.11
  Q 140.96 145.22 142.82 144.33
  Q 152.07 139.88 161.38 135.20
  Z"
/>
<path fill="#3fb101" d="
  M 166.91 140.77
  L 176.25 148.96
  Q 174.21 149.09 173.18 150.76
  A 0.91 0.89 -74.2 0 1 172.44 151.18
  Q 171.25 151.21 170.19 151.69
  Q 160.41 156.18 150.82 161.05
  C 149.24 161.85 147.14 161.54 146.96 164.25
  Q 141.42 161.10 136.50 157.04
  Q 136.62 154.69 138.76 154.31
  Q 139.28 154.22 139.63 153.92
  C 142.10 151.88 145.52 150.86 147.64 149.82
  Q 157.20 145.11 166.91 140.77
  Z"
/>
<path fill="#57b700" d="
  M 202.50 147.21
  L 211.25 153.71
  Q 210.46 154.20 210.03 153.68
  A 0.49 0.34 48.5 0 0 209.44 153.54
  Q 209.27 153.70 209.20 153.93
  A 1.11 0.61 -84.4 0 1 208.72 154.63
  Q 203.96 156.64 200.26 159.47
  Q 198.07 161.15 200.67 162.06
  C 210.38 165.45 225.72 167.45 235.55 163.69
  A 1.85 1.61 36.1 0 1 236.49 163.61
  Q 238.77 164.00 239.25 161.79
  Q 241.59 161.35 243.73 162.13
  A 0.30 0.29 -54.8 0 1 243.81 162.63
  C 227.71 176.44 203.22 181.14 183.00 177.75
  Q 164.26 174.61 146.96 164.25
  C 147.14 161.54 149.24 161.85 150.82 161.05
  Q 160.41 156.18 170.19 151.69
  Q 171.25 151.21 172.44 151.18
  A 0.91 0.89 -74.2 0 0 173.18 150.76
  Q 174.21 149.09 176.25 148.96
  Q 179.99 152.17 184.74 154.01
  A 3.53 3.50 -45.2 0 0 187.30 153.99
  C 190.38 152.76 196.83 150.54 198.69 147.61
  A 0.68 0.68 24.0 0 1 199.45 147.32
  Q 200.98 147.74 202.50 147.21
  Z"
/>
<path fill="#73bf01" d="
  M 211.25 153.71
  Q 224.12 161.53 239.25 161.79
  Q 238.77 164.00 236.49 163.61
  A 1.85 1.61 36.1 0 0 235.55 163.69
  C 225.72 167.45 210.38 165.45 200.67 162.06
  Q 198.07 161.15 200.26 159.47
  Q 203.96 156.64 208.72 154.63
  A 1.11 0.61 -84.4 0 0 209.20 153.93
  Q 209.27 153.70 209.44 153.54
  A 0.49 0.34 48.5 0 1 210.03 153.68
  Q 210.46 154.20 211.25 153.71
  Z"
/>
<path fill="#ffffff" d="
  M 49.69 256.00
  L 25.69 256.00
  C 8.15 255.70 1.00 243.99 0.00 227.94
  L 0.00 225.69
  C 1.75 191.48 23.71 194.74 49.45 195.00
  A 0.56 0.56 0.5 0 1 50.00 195.56
  L 50.00 204.98
  A 0.52 0.52 -89.6 0 1 49.48 205.50
  C 42.36 205.50 24.71 203.69 19.55 208.43
  C 12.59 214.84 11.23 239.70 20.93 244.19
  Q 23.17 245.23 28.24 245.37
  Q 38.27 245.64 49.05 245.48
  A 0.87 0.80 0.6 0 1 49.93 246.31
  L 49.69 256.00
  Z"
/>
<path fill="#ffffff" d="
  M 105.44 256.00
  L 81.44 256.00
  Q 61.82 255.70 57.00 237.75
  C 54.43 228.19 55.37 214.36 60.48 206.11
  Q 66.91 195.72 81.25 195.24
  Q 93.09 194.84 104.94 195.05
  A 0.59 0.59 86.5 0 1 105.51 195.56
  Q 106.20 200.33 105.40 205.08
  A 0.63 0.60 3.3 0 1 104.81 205.58
  Q 90.74 206.06 86.50 205.75
  Q 71.83 204.67 70.23 219.17
  A 0.70 0.69 -87.0 0 0 70.92 219.94
  L 104.94 219.81
  A 0.57 0.56 86.6 0 1 105.50 220.31
  Q 106.13 225.13 105.51 229.94
  A 0.58 0.57 -86.0 0 1 104.94 230.44
  L 70.74 230.50
  A 0.66 0.66 88.8 0 0 70.08 231.19
  C 70.39 238.94 73.02 244.43 81.47 245.28
  C 89.11 246.04 96.40 245.33 105.07 245.67
  A 0.57 0.56 88.9 0 1 105.61 246.19
  Q 106.08 251.11 105.44 256.00
  Z"
/>
<path fill="#ffffff" d="
  M 170.39 256.00
  L 155.69 256.00
  L 130.43 211.53
  Q 129.28 209.50 129.31 211.84
  L 129.83 256.00
  L 116.94 256.00
  L 116.75 195.88
  A 0.88 0.88 0.0 0 1 117.63 195.00
  L 132.40 195.00
  A 0.97 0.95 -14.1 0 1 133.24 195.49
  L 157.19 237.57
  Q 158.01 239.01 157.99 237.35
  L 157.50 195.65
  A 0.65 0.64 -0.4 0 1 158.15 195.00
  L 169.83 195.00
  A 0.67 0.66 0.0 0 1 170.50 195.66
  L 170.39 256.00
  Z"
/>
<path fill="#ffffff" d="
  M 196.10 256.00
  L 182.94 256.00
  L 183.00 195.67
  A 0.67 0.67 0.0 0 1 183.67 195.00
  L 195.69 195.00
  A 0.56 0.55 0.0 0 1 196.25 195.55
  L 196.10 256.00
  Z"
/>
<path fill="#ffffff" d="
  M 261.19 256.00
  L 231.22 255.89
  C 208.85 256.11 202.53 236.14 205.91 217.59
  C 208.76 201.98 217.61 195.43 233.24 195.04
  Q 247.03 194.70 260.82 195.17
  A 0.55 0.51 1.7 0 1 261.35 195.69
  L 261.30 205.00
  A 0.53 0.50 1.1 0 1 260.76 205.49
  C 248.00 205.35 229.19 203.86 224.45 208.68
  C 218.04 215.21 217.04 237.44 225.39 242.95
  C 230.45 246.29 241.03 245.00 247.39 245.00
  A 0.83 0.81 0.0 0 0 248.22 244.19
  L 248.09 231.19
  A 0.53 0.52 0.0 0 0 247.57 230.68
  L 231.68 230.32
  A 0.55 0.52 0.6 0 1 231.14 229.80
  L 231.15 220.44
  A 0.53 0.51 -0.0 0 1 231.68 219.93
  L 260.45 219.76
  A 1.03 1.02 0.3 0 1 261.48 220.79
  L 261.19 256.00
  Z"
/>
<path fill="#ffffff" d="
  M 390.00 255.06
  L 390.00 256.00
  L 376.19 256.00
  L 370.61 242.10
  A 0.96 0.87 78.1 0 0 369.78 241.50
  L 344.30 241.56
  A 0.75 0.69 -78.1 0 0 343.64 242.03
  L 338.19 256.00
  L 314.69 256.00
  L 309.13 242.02
  A 0.76 0.72 -10.1 0 0 308.43 241.56
  L 283.07 241.56
  A 0.73 0.71 -79.2 0 0 282.40 242.03
  L 276.94 256.00
  L 263.73 255.91
  L 289.13 195.58
  A 0.94 0.94 11.2 0 1 290.00 195.00
  L 302.48 195.00
  A 0.71 0.70 -11.3 0 1 303.13 195.43
  L 326.39 250.21
  Q 326.90 251.41 327.42 250.20
  L 350.49 195.64
  A 0.78 0.73 -78.0 0 1 351.18 195.16
  L 363.09 195.03
  A 1.91 1.75 77.2 0 1 364.76 196.19
  L 390.00 255.06
  Z
  M 286.98 230.10
  A 0.34 0.34 -79.8 0 0 287.30 230.56
  L 304.35 230.44
  A 0.34 0.34 -10.9 0 0 304.66 229.97
  L 295.98 208.01
  A 0.34 0.34 -45.4 0 0 295.35 208.02
  L 286.98 230.10
  Z
  M 348.16 230.12
  A 0.30 0.30 -79.8 0 0 348.44 230.53
  L 365.61 230.47
  A 0.30 0.30 78.7 0 0 365.89 230.06
  L 357.23 207.86
  A 0.30 0.30 -43.8 0 0 356.67 207.86
  L 348.16 230.12
  Z"
/>
</svg>
